PathFileType	4	(X/Y/Z)	18_2_rein_76_p0_0-486_filt_butterworth.trc
DataRate	CameraRate	NumFrames	NumMarkers	Units	OrigDataRate	OrigDataStartFrame	OrigNumFrames
59.0	59.0	5	27	m	59.0	243	486
Frame#	Time	RHip			RKnee			RAnkle			RBigToe			RSmallToe			RHeel			LHip			LKnee			LAnkle			LBigToe			LSmallToe			LHeel			Neck			Head			Nose			RShoulder			RElbow			RWrist			RThumb			RIndex			RPinky			LShoulder			LElbow			LWrist			LThumb			LIndex			LPinky			
		X1	Y1	Z1	X2	Y2	Z2	X3	Y3	Z3	X4	Y4	Z4	X5	Y5	Z5	X6	Y6	Z6	X7	Y7	Z7	X8	Y8	Z8	X9	Y9	Z9	X10	Y10	Z10	X11	Y11	Z11	X12	Y12	Z12	X13	Y13	Z13	X14	Y14	Z14	X15	Y15	Z15	X16	Y16	Z16	X17	Y17	Z17	X18	Y18	Z18	X19	Y19	Z19	X20	Y20	Z20	X21	Y21	Z21	X22	Y22	Z22	X23	Y23	Z23	X24	Y24	Z24	X25	Y25	Z25	X26	Y26	Z26	X27	Y27	Z27	
243	4.11864406779661	0.2439767992469768	0.7715259805411152	0.5739131903413174	0.23572740050467786	0.3335543245218411	0.578820176772561	0.24661562005527587	-0.03771623741699813	0.5922845485610614	0.2120030968307212	-0.033401700905862426	0.40618724782681476	0.2715754181338733	-0.04543974587868921	0.4402151291888246	0.22585835840457782	-0.12632557434342298	0.6710432316489308	0.03668147367420893	0.7665799736066533	0.5852801270454826	0.03771773076038957	0.3218618725259147	0.5832280273971335	0.03785800241232089	-0.04825085226208298	0.5737234308048921	0.07253663785640495	-0.03978011580143556	0.41344836149815833	0.007269113066588933	-0.05092478494074257	0.4538505245228036	0.0455960836100227	-0.08965828706472	0.6104186619586781	0.16201557149378112	1.2902988354661957	0.6343644979976029	0.18868913165655152	1.5340395729202772	0.590262483879034	0.17218485833683717	1.409403937982028	0.5262179929461899	0.29822003545487097	1.2759595689115613	0.5874150800706484	0.425044638976744	1.4174534974151614	0.5260256208691503	0.265271804091999	1.5600372844323782	0.5181555934023969	0.1904324792305998	1.6290548926233503	0.582064113213294	0.18490347119503125	1.6515008485276677	0.5736431396275699	0.1970398711350706	1.64568522403536	0.5768046302211057	0.03055031560815057	1.2807084885065227	0.6305687038882373	-0.054413185315478355	1.4255555276180256	0.5052947475618845	0.11153358759670093	1.5545629684335245	0.56074985340515	0.19595544529834008	1.5959817296187973	0.5665398503494811	0.19114474673433435	1.63055454242277	0.5710281513742373	0.17123557451883376	1.649586413207114	0.5309752163014588	
244	4.135593220338983	0.24393497522069704	0.7717438078588302	0.5736356533768139	0.23577575179279064	0.333063958889674	0.5790794778405379	0.24670979991423933	-0.038496316633467795	0.5924975330217133	0.211325871824881	-0.03151314515477084	0.4037277503502111	0.27140325909151986	-0.0458297316073622	0.4408134901075272	0.2259675862983917	-0.1269586488167854	0.6711874616558664	0.03670180495220394	0.7665914617111043	0.5854196053093934	0.03819037767853038	0.3223881468388403	0.581923197465942	0.03785427932911862	-0.04826210522500027	0.5737103745254772	0.07202177231257376	-0.03843630694181104	0.4117013729952352	0.006881745128765366	-0.04938767966196221	0.4520383669342573	0.046175510678056496	-0.08958484234473899	0.6103279053236065	0.1621652753355902	1.2901778261209225	0.6344772013101672	0.188816455183065	1.5332115555990835	0.5904733069024677	0.1721202715069883	1.4093901933064472	0.5261359034593551	0.2982026307978206	1.2761865832917785	0.5874496652890795	0.4244403273188206	1.4170760454280686	0.5274304423388997	0.26467947760780114	1.5599139354521847	0.5179676251678336	0.19087645019941452	1.6295636357543015	0.5834170732046187	0.18444158310030734	1.652913464041529	0.5727783626260311	0.19690384470781624	1.6471607164794522	0.5761628250332634	0.03087883882241834	1.2808313575829897	0.6301906965544992	-0.05441513404423819	1.4255036343623333	0.5051322346493354	0.11211159815217206	1.5552012797854664	0.5591733888316434	0.1959379714000005	1.5971409552710816	0.5663415397743953	0.191182716542948	1.6312962270245008	0.5710489944585396	0.1709086618122446	1.6498878941366286	0.5341368571071382	
245	4.152542372881356	0.24381053759347612	0.7720703983251361	0.5732802438302318	0.23579383205255464	0.3326489117603756	0.5794190168387026	0.24681614493166745	-0.03915630415189045	0.592604144035232	0.21069251048164683	-0.029730302307946425	0.4014417700169914	0.271438887229858	-0.04602273318425082	0.4411424518400791	0.22606544825536454	-0.12762401672080853	0.6713397203312041	0.03671381782492848	0.7667366568761865	0.5855024042491934	0.038670134196843106	0.3231463791561582	0.5806447018387147	0.03785094895590578	-0.04827952395313047	0.5736992397200431	0.07202919314229012	-0.03770247006520112	0.4106939536179431	0.006320307899485996	-0.047585810550197755	0.44957762631789966	0.046656283556813366	-0.08966954125730361	0.6104413496802331	0.1621482146286003	1.290057436121276	0.6345595970696827	0.18895264620916652	1.5326848749265964	0.5906495565671888	0.1722110338974155	1.4093700696726652	0.526125402869642	0.2981834662046996	1.276476881714909	0.5875454845876047	0.4240059406167797	1.4170278051128407	0.5272826193557917	0.2638413630087256	1.5602090548971328	0.5173972143304079	0.19148864709717212	1.6299549226668981	0.5850954368056245	0.18361273847161003	1.6544485680131653	0.5713318484104226	0.1967348226581424	1.648659345395374	0.5752982565770759	0.03130548507141232	1.2806115550957309	0.6312268192877208	-0.05454937190916247	1.4253508364627987	0.505444428009008	0.11250503466918327	1.5557575471097247	0.5582304997689991	0.19608387378059855	1.598299562387245	0.5660544163763893	0.19119702065813116	1.6320515983209765	0.5710609731398163	0.17033931645331477	1.6503249575319623	0.5364191829258257	
246	4.169491525423729	0.24361247414844472	0.7724642144227971	0.5728076409792775	0.23578837469927005	0.33239110668284017	0.5798190053603535	0.2469322741449662	-0.03976783588892756	0.5926844348111742	0.21018935797670207	-0.028314011343778325	0.39966275438912957	0.2714993414170516	-0.04602208599935135	0.44118997899507634	0.22615963786893278	-0.12830601072174733	0.6715023459434823	0.03671768956447273	0.766982321519846	0.585525708956041	0.039142336137982826	0.32411339844551224	0.5794261139578267	0.03784834650992636	-0.04830264199725724	0.5736894380982638	0.07229857771189335	-0.03748051403762466	0.4102164929316008	0.005693892242166158	-0.045557242815060024	0.4467737335077958	0.04697466995105559	-0.08995749724424024	0.6108188171731374	0.16210206550332584	1.2899524693610258	0.6346232546182773	0.18906017223194674	1.5325244260428539	0.5908122045861937	0.1722709850662363	1.4093560260478009	0.5261270606178182	0.2981581483896668	1.2768180041472923	0.5877070249693562	0.4235369469453444	1.417262122500137	0.5257860902905536	0.26291843141058985	1.5608275561619611	0.5166157579667003	0.1920506238358805	1.6301557620264038	0.586297545638124	0.18257589235595179	1.6558700688441768	0.5696335389524125	0.19657082996577213	1.6501608771585514	0.5743285740147132	0.0317057093233632	1.280079582256	0.6334972167817173	-0.05459006382970817	1.4252638582692427	0.5057077426799352	0.11265708579814804	1.556146535425887	0.5579451348255491	0.19631993238938433	1.5992777178091304	0.5657216758074962	0.19118484191793145	1.6326266680170514	0.57104741486526	0.16916902738341616	1.6510142388290474	0.5366866837677617	
247	4.186440677966102	0.2434392603613467	0.7728752734460183	0.5722877254962906	0.23577468042468347	0.3322562502336433	0.5802942673472935	0.2470523708272778	-0.04030526264894263	0.5927513534824964	0.2098915880363911	-0.027478172887435197	0.3986453170470316	0.27148434786518866	-0.045699991066095146	0.440778216337031	0.22624422554689605	-0.12891683572965273	0.671648787728739	0.03671433025832193	0.7673340864582123	0.5854904464749279	0.03958982049814649	0.32513892613534745	0.578302117858759	0.03784608999638929	-0.04832915737289212	0.5736806355028702	0.07247099782766092	-0.0375487759493755	0.41001381355669303	0.005142276263600034	-0.0436405364240269	0.4441934526409062	0.04712122048446654	-0.0904564073339511	0.611471133644731	0.16209767240219747	1.2898863499773077	0.6346596393918023	0.18912029717503992	1.5326782045895015	0.5909035212138478	0.17221502390948393	1.4093594355255925	0.5261146613540961	0.2981321532119751	1.277259491182717	0.5879192926916472	0.4229243774052881	1.4176866707647389	0.5234341100989148	0.26206275413215907	1.5615844773121463	0.5157916992058164	0.19226146549270917	1.6301470541595324	0.5862882581224619	0.18152469881780714	1.6570345660128907	0.5679638482971461	0.19643448071562503	1.6516402126842331	0.5734126862182746	0.03199223178197234	1.2794605617126174	0.6360659497199654	-0.054436527368097454	1.4253387725909856	0.505684581014462	0.1126813530189642	1.5562934622479854	0.5580193733741908	0.19652949361816685	1.5997922418734936	0.5653160518564346	0.19118083785621837	1.6328226519860076	0.5709671672430126	0.16742475233746204	1.6519145452712272	0.5348350758035118	
